# xmcd
#
# Track frame offsets:
#	150
#	20012
#	41510
#	50279
#	66537
#	81192
#	98099
#	113172
#	129756
#	145222
#	164859
#	176857
#	194563
#
# Disc length: 2800 seconds
#
# Revision: 1
# Processed by: cddbd v1.5.2PL0 Copyright (c) Steve Scherf et al.
# Submitted via: audiograbber 1.83.01
#
DISCID=bd0aee0d
DTITLE=The Tim Wells Blues Band - Everything You Want
DYEAR=1900
DGENRE=Blues
TTITLE0=Come Back City Girl
TTITLE1=Woke Up This Morning
TTITLE2=Every Little Bit Counts
TTITLE3=Take Everything You Want
TTITLE4=I Don't Want To Know
TTITLE5=Million One Reasons
TTITLE6=Don't Throw The Dice
TTITLE7=Crossroads
TTITLE8=Gun Me Down
TTITLE9=Voting Station
TTITLE10=Silent
TTITLE11=Into The Mystic
TTITLE12=Every Little Bit Counts Remix
EXTD=
EXTT0=
EXTT1=
EXTT2=
EXTT3=
EXTT4=
EXTT5=
EXTT6=
EXTT7=
EXTT8=
EXTT9=
EXTT10=
EXTT11=
EXTT12=
PLAYORDER=
